<?xml version="1.0" encoding="utf-8"?>
<!-- Generator: Adobe Illustrator 24.0.2, SVG Export Plug-In . SVG Version: 6.00 Build 0)  -->
<svg version="1.1" id="Capa_1" xmlns="http://www.w3.org/2000/svg" xmlns:xlink="http://www.w3.org/1999/xlink" x="0px" y="0px"
	 viewBox="0 0 149 149" style="enable-background:new 0 0 149 149;" xml:space="preserve">
<style type="text/css">
	.st0{fill:#191919;}
	.st1{fill:none;stroke:#000000;stroke-miterlimit:10;}
	.st2{fill:#FFFFFF;}
	.st3{fill:#D8191B;}
	.st4{fill:#E52421;}
	.st5{fill:#E52D1F;}
	.st6{fill:#E3E2E3;}
	.st7{fill:#FDFBFC;}
	.st8{fill:#090909;}
	.st9{fill:#010202;}
</style>
<rect x="-6.1" class="st0" width="155.1" height="149"/>
<path class="st1" d="M104,59.7"/>
<path class="st2" d="M117.6,120.7c-12.2,11-25.9,8.4-31.4-6.1c-1.1-2.9-1.8-6-2.6-9.1c-0.8-3.3-1.1-5-2.1-8.9
	c-1.7-6.4-2.3-7.4-3.1-8.2c-2.4-2.3-5.6-2.5-7-2.6c-1.8-0.1-4.9-0.3-6.9,1.6c-0.5,0.5-1.1,1.3-2.2,7.5c-0.8,4.6-0.6,5.3-1.2,7.4
	c-0.5,1.8-1.4,4.4-3.4,7.4c-0.3,0-0.7-0.1-1.1-0.1c-1.7-0.2-3.3-0.2-4.8,0c1.1-0.4,2.6-1.1,3.6-2.5c1.3-1.9,1-4,1-6
	c-0.2-7.9,3.5-15.8,1.9-17.2c-0.1-0.1-0.5-0.4-1.1-1c-0.7-0.6-1-0.9-1.3-1.3c-0.3-0.3-0.7-0.9-1-1.7c-0.1-0.4-0.4-1.1-0.2-2.1
	c0-0.2,0.2-1.3,1.2-2.1c0.6-0.6,1-0.5,1.4-1.1c0.3-0.5,0.4-1,0.5-1.4c0.2-0.8,0.1-1.4,0.1-1.5c-0.2-3,4.2-20.3,6.5-24.4
	c0.7-1.2,1.7-2.2,1.7-2.2c0.6-0.6,1.1-1,1.5-1.3c-1.1,4.7-2.2,9-3.1,13.4c-0.6,2.9-0.9,5.1-1,7.9c-0.1,4.3-0.1,6.5,1,8.2
	c2.2,3.4,5.6,1.8,10.9,6.4c1.1,1,1.8,1.8,3.2,2.2c2.9,0.8,5.7-0.9,6.8-1.5c14.7-7.2,19-26.9,7.8-37c-4-3.6-9.4-5.3-14.6-6.8
	c-9.1,0.6-18.3,1.2-27.4,1.9c8.6-3.8,21.6-7.6,35.6-4c2.1,0.5,4,1.2,4,1.2c3,1.1,5.3,2.5,7,3.5c2.3,1.7,6,4.9,7.7,10
	c0.9,2.8,0.9,5.3,1,7.6c0,4.8-1,8.3-1.3,9.3c-0.6,1.9-1.4,4.5-3.2,7.1c-3.5,5-10.7,9.2-15.1,10.7c-0.6,0.2-2.2,0.7-2.9,2.2
	c-0.7,1.4-0.2,3,0.1,3.8c3.4,9.8,5.3,14.6,5.9,15.9c6,14.9,10.7,17.3,25.8,13.1C116.3,119.6,117,120.2,117.6,120.7z"/>
<path class="st3" d="M58,35.9c-0.9-1.2-2.8-4.1-2.7-8.1c0.1-5,3.1-8.3,5-10.1c3.2-3.1,4.4-3.4,4.9-3.1c0.8,0.5-0.2,2.7-0.1,6.2
	c0.1,2.6,0.7,4.7,1.2,6c0.5,0.5,1.3,1.4,1.8,2.7c0.8,1.7,0.8,3.2,0.8,4.1C65.3,34.3,61.7,35.1,58,35.9z"/>
<path class="st4" d="M120.8,74.1c0,3.4-0.2,39-0.3,41.1c0,0.3-0.1,1-0.1,1.3c-0.2,1.8-0.3,2.1-0.5,2.5c-0.2,0.3-0.5,0.7-1.1,1
	c-0.1,0.2-0.5,0.7-1.2,0.7c-1.1,0.1-2.1-0.9-2.1-1.7c0-0.5,0.4-0.8,0.7-1.1c1-1.1,1-2.7,0.9-4.4c-0.1-5.6,0.2-11.2-0.1-16.8
	c-0.2-5.3-0.1-10.7,0.1-16c0.3-7.7,1-11.4,0.8-19.1c-0.1-2.8-0.2-5.2-0.3-6.7c0-0.6,0.2-1.4,0.5-2.3c0.3-0.8,0.7-1.4,1-1.8
	c1.3,1.7,1.7,3.1,1.7,4.1c0.1,0.9-0.1,1.4-0.3,3.7c0,0.9,0,1.1-0.1,2.7c-0.1,3.7-0.2,4.1-0.2,5.8c0,1.1,0.1,2.6,0.3,4.5
	C121,71.8,121.1,72.2,120.8,74.1z"/>
<path class="st5" d="M39.8,66.8c-0.4-0.2-0.8-0.3-1.1-0.5c-0.8-0.5-2.3-1.3-4.2-1.6C25.9,63,17.2,70.6,16.8,75
	c-0.1,1.4,0.6,2.5,1.1,3.7c0.9,2.1,2.3,4.7-1.1,6.1c-1.1-4-4.2-7.6-2.6-12.3c1.9-5.3,5.1-9.4,10.9-10.8c0.4-0.3,0.8-0.7,1.3-1
	c3.9,0.2,7.9-0.2,11.3,2.5C38.7,64.3,40.2,65,39.8,66.8z"/>
<path class="st2" d="M73.9,34.1c5.9,0,7.8,0,8.4,1.1c0.4,0.8-0.1,1.8-0.5,2.5C77,36.9,69,36.3,59.5,38.6c-7.8,1.9-13.8,5-17.6,7.5
	c-1.1,0.3-1.5-0.1-1.3-1.2c5-4.8,11.6-6.4,17.7-9c1.8-0.8,4-1.2,6.8-1.5C67,34,67.4,34.1,73.9,34.1z"/>
<path class="st4" d="M120.8,74.1c0-0.8,0.1-1.7,0.1-2.5c4.8-1.9,7.7-6.5,7.6-11.9c-0.1-2.8,0-5.6,1.5-8.2
	C133.8,62.1,129.6,72.2,120.8,74.1z"/>
<path class="st4" d="M36.9,109.7c-4.1-2.2-5.4-7.6-3.3-14.2c0.5,0.8,1.2,1.2,2.1,1.3c0.1,4.2,0.4,8.4,3.2,11.9
	C38.5,109.6,37.5,109.4,36.9,109.7z"/>
<path class="st2" d="M36.9,109.7c0.6-0.3,1.3-0.7,1.9-1c1.1,0.6,2.7,1.5,4.9,2c0.6,0.1,2.3,0.5,4,0.4c4.4-0.3,7.5-3.9,8.4-5
	c0.6,1.3,1.1,2.5,1.7,3.8c-4.4,4.8-9.7,3.7-15,2.3C40.7,111.6,38.8,110.5,36.9,109.7z"/>
<path class="st4" d="M40.6,81.5c2.1-4.8,3.1-9.7,0-14.5c-0.3-1,0.2-1.4,1.2-1.2c1.4,1.9,2.9,4.9,2.8,8.4c0,2.8-1,5-2.2,7.9
	c-1,2.4-2.1,4.2-3,5.5c0.2-1.7,0.5-3.5,1-5.3C40.4,82.1,40.5,81.8,40.6,81.5z"/>
<path class="st4" d="M40.6,81.5c0.1,0.5,0.2,1.1,0.3,1.6c-0.6,5-4.9,8.5-5.2,13.6c-1.5,0.9-2,0.2-2.1-1.3
	C34.5,90.1,38,86.1,40.6,81.5z"/>
<path class="st4" d="M14.9,72.3c-1.8,4.5,3.2,8.1,1.9,12.5c-3.3-1.6-3.1-1.6-3.5-5.8c-0.3-2.8-0.5-5.5,0.6-8.1
	C15,70.8,15.2,71.4,14.9,72.3z"/>
<path class="st4" d="M41.7,65.9c0.6,1.8,1.2,4.3,1.1,7.4c-0.2,7.3-4.3,12.4-5.8,14.1l0,0c0,0,3-3.8,4.1-8c0,0,1.5-5.7-1.4-11.6
	c-0.2-0.4-0.5-0.7-0.5-0.7c-0.2-0.3-0.5-0.5-0.6-0.6c0,0-0.7-0.8-1.7-2.1c-0.5-0.7-0.5-0.7-0.6-0.8c-1.6-1.4-4.2-1.6-6-1.6
	c-1.4,0-3,0.6-4-1.1C32.6,58.9,37.6,61,41.7,65.9z"/>
<path class="st4" d="M14.9,72.3c-0.4-0.5-0.7-1-1.1-1.5c0.6-1.4,2.8-6.1,7.7-8.6c2.7-1.4,5.4-1.6,5.8-1.7c1.7-0.1,3.1,0,4.1,0.2
	c-1,0.1-2.3,0.4-3.8,0.9c-4,1.3-6.5,3.3-7.3,3.9C17.5,68,15.8,70.6,14.9,72.3z"/>
<path class="st2" d="M40.6,44.8c0.4,0.4,0.9,0.8,1.3,1.2c-0.8,0.6-1.7,1.2-2.6,1.9c-0.9,0.7-1.7,1.4-2.4,2.1c0.2-0.5,0.4-1,0.7-1.5
	C38.5,46.8,39.7,45.6,40.6,44.8z"/>
<path class="st6" d="M75.8,83.5c-4.2-0.4-7-0.5-9-0.4c-0.5,0-1.7,0.1-2.4-0.6c-0.6-0.6-0.6-1.5-0.6-2.3c0-1-0.1-1.8,0.4-2.4
	c1.1-1.4,5.2-0.4,7.8,1.4C74.1,80.5,75.2,82.3,75.8,83.5z"/>
<path class="st4" d="M118,74.1c0-0.8-0.1-1.7-0.1-2.5c-5.4-1.9-8.7-6.5-8.6-11.9c0.1-2.8-0.1-5.6-1.7-8.2
	C103.4,62.1,108.1,72.2,118,74.1z"/>
<path class="st4" d="M114.9,60.7"/>
<path class="st3" d="M93.7,37.1c0.8-1.1,3-4.5,2.7-9.1c-0.3-5.1-3.4-8.4-5.4-10.1c-3.5-3.1-4.8-3.4-5.3-3.1
	c-0.9,0.5,0.2,2.7,0.1,6.2c-0.1,2.6-0.8,4.7-1.4,6c-1.9,1.8-2.8,4-2.8,6.5c0.8,0.2,1.5,0.4,2.1,0.5c0.8,0.2,1.5,0.3,1.6,0.3
	C86.2,34.6,88.5,35.2,93.7,37.1z"/>
<path class="st6" d="M69.5,86.1"/>
<path class="st7" d="M58,76.8c-0.5-0.3-1.5,0-2,0.7c-0.8,1.1,0.1,2.7,0.2,2.9c0.7,1.2,1.9,1.6,2.2,1.7c0-0.2,0-0.6,0-1.1
	c0-0.2,0-1.4-0.1-2.8C58.2,77.1,58.2,76.9,58,76.8z"/>
<path class="st8" d="M58.2,82.8"/>
<path class="st7" d="M50.5,82.5"/>
<path class="st8" d="M-4.6,47.2"/>
<path class="st9" d="M-22.6,5.7"/>
</svg>
